<?xml version="1.0" standalone="no"?>
<!DOCTYPE svg PUBLIC "-//W3C//DTD SVG 20010904//EN"
 "http://www.w3.org/TR/2001/REC-SVG-20010904/DTD/svg10.dtd">
<svg version="1.0" xmlns="http://www.w3.org/2000/svg"
 width="226.000000pt" height="226.000000pt" viewBox="0 0 226.000000 226.000000"
 preserveAspectRatio="xMidYMid meet">
<metadata>
Created by potrace 1.11, written by Peter Selinger 2001-2013
</metadata>
<g transform="translate(0.000000,226.000000) scale(0.100000,-0.100000)"
fill="#000000" stroke="none">
<path d="M102 2233 c-18 -9 -45 -32 -60 -51 l-27 -35 -3 -1002 c-3 -1107 -6
-1048 61 -1099 19 -14 48 -29 65 -32 30 -6 45 7 432 395 l401 401 173 0 173 0
28 40 c34 49 113 103 180 122 173 51 362 -57 408 -233 19 -77 14 -157 -16
-222 -70 -154 -239 -232 -405 -188 -56 15 -131 69 -166 118 l-30 43 -93 0 -94
0 -240 -240 -240 -240 749 2 749 3 36 28 c71 54 67 -10 67 1097 l0 998 -23 32
c-12 18 -35 43 -50 54 -28 21 -36 21 -698 24 l-669 2 0 -173 c0 -160 1 -174
20 -190 11 -9 20 -14 20 -10 0 12 51 -41 71 -74 l21 -33 188 0 188 0 16 25
c88 133 268 187 411 121 258 -118 267 -477 15 -606 -86 -44 -215 -44 -300 0
-40 21 -123 90 -116 97 2 3 -3 13 -12 24 -15 17 -32 19 -202 19 -181 0 -186
-1 -200 -22 -26 -39 -89 -97 -128 -117 -66 -34 -179 -45 -232 -24 -8 3 -19 5
-23 4 -13 -2 -70 30 -114 65 -47 38 -102 127 -110 176 -7 49 -10 132 -4 143 3
6 7 18 8 28 8 52 77 145 136 182 l27 17 0 174 0 174 -177 0 c-144 0 -184 -4
-211 -17z"/>
<path d="M578 1749 c-51 -26 -81 -71 -83 -127 -4 -79 36 -140 106 -161 106
-32 202 39 204 151 2 115 -123 190 -227 137z"/>
<path d="M1555 1758 c-43 -15 -65 -37 -86 -83 -31 -70 -10 -152 52 -196 48
-34 136 -32 183 5 71 54 84 153 30 223 -39 51 -117 73 -179 51z"/>
<path d="M1538 789 c-75 -39 -106 -133 -68 -209 25 -48 48 -67 102 -81 146
-39 257 139 159 255 -43 50 -132 66 -193 35z"/>
</g>
</svg>
